<svg xmlns="http://www.w3.org/2000/svg" xmlns:xlink="http://www.w3.org/1999/xlink" width="500" zoomAndPan="magnify" viewBox="0 0 375 374.999991" height="500" preserveAspectRatio="xMidYMid meet" version="1.0"><defs><g/><clipPath id="84ff6da65d"><path d="M 110.300781 124 L 270 124 L 270 185.710938 L 110.300781 185.710938 Z M 110.300781 124 " clip-rule="nonzero"/></clipPath><clipPath id="880112041e"><path d="M 105.296875 110.90625 L 185.546875 110.90625 L 185.546875 191.15625 L 105.296875 191.15625 Z M 105.296875 110.90625 " clip-rule="nonzero"/></clipPath><clipPath id="6b0a9a7133"><path d="M 117.023438 124.210938 L 168 124.210938 L 168 178.960938 L 117.023438 178.960938 Z M 117.023438 124.210938 " clip-rule="nonzero"/></clipPath><clipPath id="80d580d346"><path d="M 161 137 L 175.523438 137 L 175.523438 166 L 161 166 Z M 161 137 " clip-rule="nonzero"/></clipPath></defs><rect x="-37.5" width="450" fill="#ffffff" y="-37.499999" height="449.999989" fill-opacity="1"/><rect x="-37.5" width="450" fill="#ffffff" y="-37.499999" height="449.999989" fill-opacity="1"/><rect x="-37.5" width="450" fill="#ffffff" y="-37.499999" height="449.999989" fill-opacity="1"/><g clip-path="url(#84ff6da65d)"><path fill="#ff3131" d="M 133.574219 131.117188 C 133.574219 131.117188 140.671875 138.382812 141.457031 138.804688 C 142.242188 139.253906 180.152344 143.089844 193.84375 144.222656 C 207.507812 145.359375 228.375 146.601562 228.375 146.601562 C 228.375 146.601562 215.496094 136.296875 203.609375 131.828125 C 191.75 127.363281 175.726562 127.285156 166.746094 127.363281 C 157.742188 127.445312 133.574219 131.117188 133.574219 131.117188 Z M 138.917969 162.5625 C 144.335938 162.5625 148.734375 167.082031 148.734375 172.683594 C 148.734375 178.285156 144.335938 182.804688 138.917969 182.804688 C 133.5 182.804688 129.097656 178.285156 129.097656 172.683594 C 129.097656 167.082031 133.5 162.5625 138.917969 162.5625 Z M 138.917969 159.65625 C 145.882812 159.65625 151.535156 165.496094 151.535156 172.683594 C 151.535156 179.875 145.882812 185.710938 138.917969 185.710938 C 131.953125 185.710938 126.324219 179.875 126.324219 172.683594 C 126.324219 165.496094 131.953125 159.65625 138.917969 159.65625 Z M 240.992188 162.5625 C 246.386719 162.5625 250.785156 167.082031 250.785156 172.683594 C 250.785156 178.285156 246.386719 182.804688 240.992188 182.804688 C 235.574219 182.804688 231.175781 178.285156 231.175781 172.683594 C 231.175781 167.082031 235.574219 162.5625 240.992188 162.5625 Z M 240.992188 159.65625 C 247.957031 159.65625 253.585938 165.496094 253.585938 172.683594 C 253.585938 179.875 247.957031 185.710938 240.992188 185.710938 C 234.03125 185.710938 228.375 179.875 228.375 172.683594 C 228.375 165.496094 234.03125 159.65625 240.992188 159.65625 Z M 122.109375 128.367188 C 122.109375 128.367188 136.300781 125.066406 140.804688 124.878906 C 145.304688 124.695312 185.308594 123.480469 191.722656 124.695312 C 198.109375 125.9375 209.890625 129.953125 230.15625 142.71875 C 230.15625 142.71875 253.535156 146.894531 260.8125 149.164062 C 268.089844 151.4375 267.75 156.355469 267.75 156.355469 C 267.75 156.355469 270 159.84375 270 163.171875 C 270 166.476562 269.476562 172.421875 268.953125 174.007812 C 268.429688 175.566406 262.878906 178.894531 255.96875 179.054688 C 255.757812 179.078125 255.417969 179.078125 254.972656 179.078125 C 255.839844 177.125 256.335938 174.957031 256.335938 172.683594 C 256.335938 164.175781 249.632812 157.25 241.386719 157.25 C 233.140625 157.25 226.464844 164.175781 226.464844 172.683594 C 226.464844 174.824219 226.882812 176.886719 227.640625 178.738281 C 205.703125 178.394531 175.492188 177.890625 153.421875 177.496094 C 153.839844 176.042969 154.074219 174.507812 154.074219 172.921875 C 154.074219 163.910156 147.007812 156.589844 138.261719 156.589844 C 129.542969 156.589844 122.476562 163.910156 122.476562 172.921875 C 122.476562 174.21875 122.632812 175.511719 122.921875 176.726562 C 119.859375 176.121094 112.816406 174.429688 111.875 171.019531 C 110.667969 166.660156 110.378906 160.398438 110.984375 159.789062 C 111.585938 159.179688 113.652344 157.699219 113.652344 157.699219 C 113.652344 157.699219 113.234375 145.996094 113.914062 144.671875 C 114.625 143.351562 125.695312 131.644531 125.695312 131.644531 C 125.695312 131.644531 119.542969 130.695312 122.109375 128.367188 " fill-opacity="1" fill-rule="evenodd"/></g><g clip-path="url(#880112041e)"><path fill="#ff3131" d="M 185.546875 151.03125 C 185.546875 152.34375 185.480469 153.65625 185.351562 154.964844 C 185.222656 156.273438 185.03125 157.570312 184.773438 158.859375 C 184.519531 160.148438 184.199219 161.421875 183.816406 162.679688 C 183.4375 163.9375 182.992188 165.171875 182.492188 166.386719 C 181.988281 167.601562 181.425781 168.789062 180.808594 169.945312 C 180.1875 171.105469 179.511719 172.230469 178.78125 173.324219 C 178.054688 174.417969 177.269531 175.46875 176.4375 176.488281 C 175.605469 177.503906 174.722656 178.476562 173.792969 179.402344 C 172.863281 180.332031 171.890625 181.214844 170.875 182.046875 C 169.859375 182.882812 168.804688 183.664062 167.710938 184.394531 C 166.621094 185.125 165.496094 185.800781 164.335938 186.417969 C 163.175781 187.039062 161.988281 187.597656 160.777344 188.101562 C 159.5625 188.605469 158.324219 189.046875 157.066406 189.429688 C 155.8125 189.808594 154.539062 190.128906 153.25 190.386719 C 151.960938 190.640625 150.660156 190.835938 149.351562 190.964844 C 148.046875 191.09375 146.734375 191.15625 145.421875 191.15625 C 144.105469 191.15625 142.796875 191.09375 141.488281 190.964844 C 140.179688 190.835938 138.882812 190.640625 137.59375 190.386719 C 136.304688 190.128906 135.03125 189.808594 133.773438 189.429688 C 132.515625 189.046875 131.28125 188.605469 130.066406 188.101562 C 128.851562 187.597656 127.664062 187.039062 126.503906 186.417969 C 125.347656 185.800781 124.222656 185.125 123.128906 184.394531 C 122.035156 183.664062 120.980469 182.882812 119.964844 182.046875 C 118.949219 181.214844 117.976562 180.332031 117.046875 179.402344 C 116.117188 178.476562 115.238281 177.503906 114.402344 176.488281 C 113.570312 175.46875 112.789062 174.417969 112.058594 173.324219 C 111.328125 172.230469 110.652344 171.105469 110.035156 169.945312 C 109.414062 168.789062 108.851562 167.601562 108.351562 166.386719 C 107.847656 165.171875 107.40625 163.9375 107.023438 162.679688 C 106.640625 161.421875 106.324219 160.148438 106.066406 158.859375 C 105.808594 157.570312 105.617188 156.273438 105.488281 154.964844 C 105.359375 153.65625 105.296875 152.34375 105.296875 151.03125 C 105.296875 149.71875 105.359375 148.40625 105.488281 147.097656 C 105.617188 145.789062 105.808594 144.492188 106.066406 143.203125 C 106.324219 141.914062 106.640625 140.640625 107.023438 139.382812 C 107.40625 138.125 107.847656 136.890625 108.351562 135.675781 C 108.851562 134.460938 109.414062 133.277344 110.035156 132.117188 C 110.652344 130.957031 111.328125 129.832031 112.058594 128.738281 C 112.789062 127.648438 113.570312 126.59375 114.402344 125.578125 C 115.238281 124.5625 116.117188 123.589844 117.046875 122.660156 C 117.976562 121.730469 118.949219 120.847656 119.964844 120.015625 C 120.980469 119.179688 122.035156 118.398438 123.128906 117.667969 C 124.222656 116.9375 125.347656 116.265625 126.503906 115.644531 C 127.664062 115.023438 128.851562 114.464844 130.066406 113.960938 C 131.28125 113.457031 132.515625 113.015625 133.773438 112.632812 C 135.03125 112.253906 136.304688 111.933594 137.59375 111.675781 C 138.882812 111.421875 140.179688 111.230469 141.488281 111.101562 C 142.796875 110.972656 144.105469 110.90625 145.421875 110.90625 C 146.734375 110.90625 148.046875 110.972656 149.351562 111.101562 C 150.660156 111.230469 151.960938 111.421875 153.25 111.675781 C 154.539062 111.933594 155.8125 112.253906 157.066406 112.632812 C 158.324219 113.015625 159.5625 113.457031 160.777344 113.960938 C 161.988281 114.464844 163.175781 115.023438 164.335938 115.644531 C 165.496094 116.265625 166.621094 116.9375 167.710938 117.667969 C 168.804688 118.398438 169.859375 119.179688 170.875 120.015625 C 171.890625 120.847656 172.863281 121.730469 173.792969 122.660156 C 174.722656 123.589844 175.605469 124.5625 176.4375 125.578125 C 177.269531 126.59375 178.054688 127.648438 178.78125 128.738281 C 179.511719 129.832031 180.1875 130.957031 180.808594 132.117188 C 181.425781 133.277344 181.988281 134.460938 182.492188 135.675781 C 182.992188 136.890625 183.4375 138.125 183.816406 139.382812 C 184.199219 140.640625 184.519531 141.914062 184.773438 143.203125 C 185.03125 144.492188 185.222656 145.789062 185.351562 147.097656 C 185.480469 148.40625 185.546875 149.71875 185.546875 151.03125 Z M 185.546875 151.03125 " fill-opacity="1" fill-rule="nonzero"/></g><path fill="#ffffff" d="M 152.449219 151.601562 C 152.449219 152.109375 152.398438 152.617188 152.296875 153.117188 C 152.199219 153.621094 152.050781 154.105469 151.855469 154.578125 C 151.660156 155.050781 151.417969 155.5 151.132812 155.925781 C 150.851562 156.347656 150.527344 156.742188 150.164062 157.105469 C 149.800781 157.464844 149.410156 157.789062 148.984375 158.070312 C 148.558594 158.355469 148.109375 158.59375 147.636719 158.789062 C 147.164062 158.984375 146.675781 159.132812 146.171875 159.234375 C 145.671875 159.332031 145.164062 159.382812 144.652344 159.382812 C 144.140625 159.382812 143.632812 159.332031 143.128906 159.234375 C 142.628906 159.132812 142.140625 158.984375 141.667969 158.789062 C 141.195312 158.59375 140.746094 158.355469 140.320312 158.070312 C 139.894531 157.789062 139.5 157.464844 139.136719 157.105469 C 138.777344 156.742188 138.453125 156.347656 138.167969 155.925781 C 137.882812 155.5 137.644531 155.050781 137.449219 154.578125 C 137.253906 154.105469 137.105469 153.621094 137.003906 153.117188 C 136.90625 152.617188 136.855469 152.109375 136.855469 151.601562 C 136.855469 151.089844 136.90625 150.582031 137.003906 150.082031 C 137.105469 149.582031 137.253906 149.09375 137.449219 148.621094 C 137.644531 148.148438 137.882812 147.703125 138.167969 147.277344 C 138.453125 146.851562 138.777344 146.457031 139.136719 146.097656 C 139.5 145.734375 139.894531 145.414062 140.320312 145.128906 C 140.746094 144.84375 141.195312 144.605469 141.667969 144.410156 C 142.140625 144.214844 142.628906 144.066406 143.128906 143.96875 C 143.632812 143.867188 144.140625 143.816406 144.652344 143.816406 C 145.164062 143.816406 145.671875 143.867188 146.171875 143.96875 C 146.675781 144.066406 147.164062 144.214844 147.636719 144.410156 C 148.109375 144.605469 148.558594 144.84375 148.984375 145.128906 C 149.410156 145.414062 149.800781 145.734375 150.164062 146.097656 C 150.527344 146.457031 150.851562 146.851562 151.132812 147.277344 C 151.417969 147.703125 151.660156 148.148438 151.855469 148.621094 C 152.050781 149.09375 152.199219 149.582031 152.296875 150.082031 C 152.398438 150.582031 152.449219 151.089844 152.449219 151.601562 Z M 152.449219 151.601562 " fill-opacity="1" fill-rule="nonzero"/><g clip-path="url(#6b0a9a7133)"><path fill="#ffffff" d="M 160.398438 163.628906 C 158.257812 162.746094 158.890625 161.203125 159.839844 159.527344 C 161.175781 157.164062 162.113281 154.515625 162.113281 151.601562 C 162.113281 148.6875 161.175781 146.039062 159.839844 143.671875 C 158.890625 141.996094 158.257812 140.453125 160.398438 139.574219 C 161.277344 139.214844 164.90625 137.675781 167.253906 136.660156 C 167.335938 136.625 167.410156 136.597656 167.488281 136.566406 C 162.582031 129.152344 154.222656 124.210938 144.652344 124.210938 C 129.503906 124.210938 117.214844 136.480469 117.214844 151.601562 C 117.214844 166.726562 129.503906 178.988281 144.652344 178.988281 C 154.222656 178.988281 162.582031 174.046875 167.488281 166.636719 C 167.410156 166.601562 167.335938 166.574219 167.253906 166.539062 C 164.90625 165.527344 161.277344 163.988281 160.398438 163.628906 Z M 123.6875 145.011719 C 123.023438 145.597656 122.011719 145.542969 121.421875 144.886719 C 120.832031 144.222656 120.890625 143.214844 121.550781 142.621094 C 122.210938 142.039062 123.226562 142.09375 123.8125 142.757812 C 124.40625 143.414062 124.347656 144.421875 123.6875 145.011719 Z M 151.382812 128.410156 C 152.042969 127.824219 153.058594 127.878906 153.644531 128.542969 C 154.234375 129.199219 154.175781 130.214844 153.515625 130.796875 C 152.855469 131.386719 151.84375 131.332031 151.253906 130.671875 C 150.664062 130.011719 150.722656 129 151.382812 128.410156 Z M 138.523438 134.738281 C 139.179688 134.152344 140.195312 134.210938 140.785156 134.867188 C 141.375 135.527344 141.316406 136.539062 140.65625 137.125 C 139.996094 137.714844 138.984375 137.65625 138.394531 137 C 137.804688 136.339844 137.863281 135.328125 138.523438 134.738281 Z M 127.984375 135.535156 C 128.644531 134.949219 129.65625 135.003906 130.246094 135.667969 C 130.832031 136.328125 130.777344 137.339844 130.117188 137.925781 C 129.457031 138.511719 128.441406 138.453125 127.855469 137.796875 C 127.261719 137.136719 127.320312 136.125 127.984375 135.535156 Z M 127.886719 155.464844 C 128.550781 154.871094 129.5625 154.929688 130.152344 155.585938 C 130.738281 156.25 130.683594 157.261719 130.023438 157.847656 C 129.363281 158.4375 128.351562 158.378906 127.757812 157.71875 C 127.167969 157.0625 127.226562 156.050781 127.886719 155.464844 Z M 130.820312 168.375 C 130.164062 168.960938 129.148438 168.902344 128.558594 168.246094 C 127.96875 167.585938 128.027344 166.570312 128.691406 165.984375 C 129.347656 165.398438 130.359375 165.453125 130.953125 166.109375 C 131.539062 166.773438 131.484375 167.785156 130.820312 168.375 Z M 137.921875 174.789062 C 137.261719 175.375 136.25 175.320312 135.65625 174.664062 C 135.070312 174.003906 135.128906 172.992188 135.785156 172.402344 C 136.449219 171.8125 137.460938 171.871094 138.050781 172.53125 C 138.640625 173.195312 138.582031 174.203125 137.921875 174.789062 Z M 150.78125 168.464844 C 150.121094 169.054688 149.109375 168.992188 148.519531 168.339844 C 147.929688 167.675781 147.984375 166.667969 148.648438 166.078125 C 149.308594 165.488281 150.320312 165.546875 150.910156 166.207031 C 151.503906 166.863281 151.445312 167.878906 150.78125 168.464844 Z M 144.652344 164.871094 C 137.3125 164.871094 131.359375 158.933594 131.359375 151.601562 C 131.359375 144.273438 137.3125 138.335938 144.652344 138.335938 C 151.996094 138.335938 157.945312 144.273438 157.945312 151.601562 C 157.945312 158.933594 151.996094 164.871094 144.652344 164.871094 Z M 158.484375 134.832031 C 159.144531 134.238281 160.160156 134.300781 160.746094 134.957031 C 161.339844 135.621094 161.277344 136.632812 160.617188 137.214844 C 159.957031 137.804688 158.945312 137.746094 158.355469 137.09375 C 157.761719 136.433594 157.820312 135.421875 158.484375 134.832031 Z M 161.324219 167.667969 C 160.664062 168.257812 159.648438 168.199219 159.0625 167.539062 C 158.46875 166.882812 158.527344 165.867188 159.1875 165.28125 C 159.851562 164.691406 160.867188 164.75 161.453125 165.40625 C 162.042969 166.070312 161.984375 167.078125 161.324219 167.667969 Z M 161.324219 167.667969 " fill-opacity="1" fill-rule="nonzero"/></g><g clip-path="url(#80d580d346)"><path fill="#ffffff" d="M 171.984375 138.707031 C 171.136719 137.15625 170.128906 137.449219 168.929688 137.964844 C 166.578125 138.980469 162.957031 140.535156 162.070312 140.878906 C 160.734375 141.394531 161.324219 142.957031 161.765625 143.671875 C 163.195312 145.984375 164.039062 148.6875 164.039062 151.601562 C 164.039062 154.515625 163.195312 157.21875 161.765625 159.527344 C 161.324219 160.246094 160.734375 161.808594 162.070312 162.324219 C 162.957031 162.667969 166.578125 164.222656 168.929688 165.234375 C 170.125 165.75 171.136719 166.050781 171.984375 164.492188 C 174.167969 160.46875 175.332031 156.28125 175.332031 151.601562 C 175.332031 146.917969 174.167969 142.738281 171.984375 138.707031 Z M 165.375 159.648438 L 164.378906 159.125 C 164.398438 159.089844 166.148438 155.734375 166.148438 151.601562 C 166.148438 147.457031 164.398438 144.113281 164.382812 144.082031 L 165.375 143.554688 C 165.453125 143.703125 167.273438 147.183594 167.273438 151.601562 C 167.273438 156.019531 165.453125 159.503906 165.375 159.648438 Z M 171.335938 161.304688 L 170.339844 160.777344 C 170.363281 160.742188 172.5 156.648438 172.5 151.601562 C 172.5 146.542969 170.363281 142.464844 170.339844 142.425781 L 171.335938 141.898438 C 171.425781 142.074219 173.621094 146.265625 173.621094 151.601562 C 173.621094 156.933594 171.425781 161.128906 171.335938 161.304688 Z M 171.335938 161.304688 " fill-opacity="1" fill-rule="nonzero"/></g><g fill="#3d3d3d" fill-opacity="1"><g transform="translate(18.258955, 231.91979)"><g><path d="M 15.765625 0 L 14.546875 -6.296875 L 7.671875 -6.296875 L 6.46875 0 L 0.359375 0 L 6.703125 -30.71875 L 15.671875 -30.71875 L 22 0 Z M 11.25 -24.90625 L 10.984375 -24.90625 L 8.578125 -11.609375 L 13.609375 -11.609375 Z M 11.25 -24.90625 "/></g></g></g><g fill="#3d3d3d" fill-opacity="1"><g transform="translate(40.621979, 231.91979)"><g><path d="M 20.453125 -30.71875 L 20.453125 -13.609375 C 20.453125 -9.566406 20.28125 -6.628906 19.9375 -4.796875 C 19.59375 -2.960938 18.785156 -1.644531 17.515625 -0.84375 C 16.253906 -0.0390625 14.179688 0.359375 11.296875 0.359375 C 8.410156 0.359375 6.332031 -0.0390625 5.0625 -0.84375 C 3.800781 -1.644531 3 -2.960938 2.65625 -4.796875 C 2.3125 -6.628906 2.140625 -9.566406 2.140625 -13.609375 L 2.140625 -30.71875 L 8.265625 -30.71875 L 8.265625 -11.5625 C 8.265625 -9.382812 8.316406 -7.882812 8.421875 -7.0625 C 8.523438 -6.25 8.773438 -5.707031 9.171875 -5.4375 C 9.578125 -5.175781 10.285156 -5.046875 11.296875 -5.046875 C 12.304688 -5.046875 13.003906 -5.175781 13.390625 -5.4375 C 13.773438 -5.707031 14.019531 -6.242188 14.125 -7.046875 C 14.226562 -7.859375 14.28125 -9.363281 14.28125 -11.5625 L 14.28125 -30.71875 Z M 20.453125 -30.71875 "/></g></g></g><g fill="#3d3d3d" fill-opacity="1"><g transform="translate(63.208186, 231.91979)"><g><path d="M 6.25 0 L 6.25 -25.125 L 0.453125 -25.125 L 0.453125 -30.71875 L 18.21875 -30.71875 L 18.21875 -25.125 L 12.40625 -25.125 L 12.40625 0 Z M 6.25 0 "/></g></g></g><g fill="#3d3d3d" fill-opacity="1"><g transform="translate(81.866357, 231.91979)"><g><path d="M 11.296875 0.359375 C 8.203125 0.359375 6 -0.09375 4.6875 -1 C 3.375 -1.90625 2.550781 -3.363281 2.21875 -5.375 C 1.894531 -7.382812 1.734375 -10.710938 1.734375 -15.359375 C 1.734375 -20.023438 1.894531 -23.351562 2.21875 -25.34375 C 2.550781 -27.34375 3.375 -28.796875 4.6875 -29.703125 C 6 -30.609375 8.203125 -31.0625 11.296875 -31.0625 C 14.390625 -31.0625 16.585938 -30.609375 17.890625 -29.703125 C 19.203125 -28.796875 20.019531 -27.34375 20.34375 -25.34375 C 20.675781 -23.351562 20.84375 -20.023438 20.84375 -15.359375 C 20.84375 -10.710938 20.675781 -7.382812 20.34375 -5.375 C 20.019531 -3.363281 19.203125 -1.90625 17.890625 -1 C 16.585938 -0.09375 14.390625 0.359375 11.296875 0.359375 Z M 11.296875 -5.046875 C 12.484375 -5.046875 13.285156 -5.207031 13.703125 -5.53125 C 14.117188 -5.863281 14.382812 -6.664062 14.5 -7.9375 C 14.625 -9.21875 14.6875 -11.691406 14.6875 -15.359375 C 14.6875 -19.015625 14.625 -21.484375 14.5 -22.765625 C 14.382812 -24.046875 14.117188 -24.847656 13.703125 -25.171875 C 13.285156 -25.503906 12.484375 -25.671875 11.296875 -25.671875 C 10.109375 -25.671875 9.304688 -25.503906 8.890625 -25.171875 C 8.472656 -24.847656 8.203125 -24.046875 8.078125 -22.765625 C 7.960938 -21.484375 7.90625 -19.015625 7.90625 -15.359375 C 7.90625 -11.691406 7.960938 -9.21875 8.078125 -7.9375 C 8.203125 -6.664062 8.472656 -5.863281 8.890625 -5.53125 C 9.304688 -5.207031 10.109375 -5.046875 11.296875 -5.046875 Z M 11.296875 -5.046875 "/></g></g></g><g fill="#3d3d3d" fill-opacity="1"><g transform="translate(104.452563, 231.91979)"><g/></g></g><g fill="#3d3d3d" fill-opacity="1"><g transform="translate(112.442553, 231.91979)"><g><path d="M 2.328125 -30.71875 L 12.453125 -30.71875 C 14.628906 -30.71875 16.273438 -30.328125 17.390625 -29.546875 C 18.503906 -28.773438 19.253906 -27.648438 19.640625 -26.171875 C 20.023438 -24.703125 20.21875 -22.75 20.21875 -20.3125 C 20.21875 -17.957031 20.039062 -16.039062 19.6875 -14.5625 C 19.332031 -13.09375 18.585938 -11.9375 17.453125 -11.09375 C 16.328125 -10.25 14.644531 -9.828125 12.40625 -9.828125 L 8.484375 -9.828125 L 8.484375 0 L 2.328125 0 Z M 10.890625 -15.21875 C 11.898438 -15.21875 12.613281 -15.335938 13.03125 -15.578125 C 13.445312 -15.816406 13.722656 -16.269531 13.859375 -16.9375 C 13.992188 -17.613281 14.0625 -18.738281 14.0625 -20.3125 C 14.0625 -21.882812 13.992188 -23 13.859375 -23.65625 C 13.722656 -24.3125 13.453125 -24.75 13.046875 -24.96875 C 12.648438 -25.195312 11.945312 -25.3125 10.9375 -25.3125 L 8.484375 -25.3125 L 8.484375 -15.21875 Z M 10.890625 -15.21875 "/></g></g></g><g fill="#3d3d3d" fill-opacity="1"><g transform="translate(133.64502, 231.91979)"><g><path d="M 2.328125 0 L 2.328125 -30.71875 L 17.234375 -30.71875 L 17.234375 -25.3125 L 8.484375 -25.3125 L 8.484375 -18.21875 L 16.03125 -18.21875 L 16.03125 -12.8125 L 8.484375 -12.8125 L 8.484375 -5.40625 L 17.234375 -5.40625 L 17.234375 0 Z M 2.328125 0 "/></g></g></g><g fill="#3d3d3d" fill-opacity="1"><g transform="translate(152.43711, 231.91979)"><g><path d="M 12.40625 -5.046875 C 13.78125 -5.046875 15.117188 -5.148438 16.421875 -5.359375 L 16.421875 -0.40625 C 15.796875 -0.195312 14.984375 -0.0195312 13.984375 0.125 C 12.992188 0.28125 12.050781 0.359375 11.15625 0.359375 L 10.71875 0.359375 L 9.234375 8.4375 L 4.203125 8.4375 L 4.203125 8.21875 L 6.96875 -0.140625 C 5.476562 -0.554688 4.359375 -1.328125 3.609375 -2.453125 C 2.867188 -3.585938 2.367188 -5.144531 2.109375 -7.125 C 1.859375 -9.101562 1.734375 -11.847656 1.734375 -15.359375 C 1.734375 -19.671875 1.957031 -22.90625 2.40625 -25.0625 C 2.851562 -27.21875 3.738281 -28.753906 5.0625 -29.671875 C 6.382812 -30.597656 8.414062 -31.0625 11.15625 -31.0625 C 12.144531 -31.0625 13.117188 -30.992188 14.078125 -30.859375 C 15.046875 -30.734375 15.800781 -30.566406 16.34375 -30.359375 L 16.34375 -25.359375 C 14.613281 -25.566406 13.300781 -25.671875 12.40625 -25.671875 C 10.894531 -25.671875 9.847656 -25.46875 9.265625 -25.0625 C 8.679688 -24.664062 8.304688 -23.8125 8.140625 -22.5 C 7.984375 -21.1875 7.90625 -18.804688 7.90625 -15.359375 C 7.90625 -11.898438 7.984375 -9.515625 8.140625 -8.203125 C 8.304688 -6.898438 8.679688 -6.046875 9.265625 -5.640625 C 9.847656 -5.242188 10.894531 -5.046875 12.40625 -5.046875 Z M 12.40625 -5.046875 "/></g></g></g><g fill="#3d3d3d" fill-opacity="1"><g transform="translate(170.113276, 231.91979)"><g><path d="M 15.765625 0 L 14.546875 -6.296875 L 7.671875 -6.296875 L 6.46875 0 L 0.359375 0 L 6.703125 -30.71875 L 15.671875 -30.71875 L 22 0 Z M 11.25 -24.90625 L 10.984375 -24.90625 L 8.578125 -11.609375 L 13.609375 -11.609375 Z M 11.25 -24.90625 "/></g></g></g><g fill="#3d3d3d" fill-opacity="1"><g transform="translate(192.4763, 231.91979)"><g><path d="M 9.859375 0.359375 C 8.609375 0.359375 7.25 0.289062 5.78125 0.15625 C 4.3125 0.0195312 3.007812 -0.164062 1.875 -0.40625 L 1.875 -5.40625 C 4.90625 -5.164062 7.003906 -5.046875 8.171875 -5.046875 C 9.210938 -5.046875 10 -5.101562 10.53125 -5.21875 C 11.070312 -5.34375 11.472656 -5.550781 11.734375 -5.84375 C 11.972656 -6.082031 12.128906 -6.414062 12.203125 -6.84375 C 12.285156 -7.28125 12.328125 -7.898438 12.328125 -8.703125 C 12.328125 -9.804688 12.265625 -10.585938 12.140625 -11.046875 C 12.023438 -11.503906 11.78125 -11.84375 11.40625 -12.0625 C 11.03125 -12.289062 10.382812 -12.492188 9.46875 -12.671875 L 5.265625 -13.4375 C 3.773438 -13.707031 2.75 -14.523438 2.1875 -15.890625 C 1.625 -17.265625 1.34375 -19.242188 1.34375 -21.828125 C 1.34375 -24.359375 1.707031 -26.289062 2.4375 -27.625 C 3.164062 -28.96875 4.164062 -29.875 5.4375 -30.34375 C 6.71875 -30.820312 8.34375 -31.0625 10.3125 -31.0625 C 11.675781 -31.0625 12.988281 -30.972656 14.25 -30.796875 C 15.519531 -30.617188 16.554688 -30.441406 17.359375 -30.265625 L 17.359375 -25.265625 C 15.753906 -25.535156 13.957031 -25.671875 11.96875 -25.671875 C 10.894531 -25.671875 10.066406 -25.625 9.484375 -25.53125 C 8.898438 -25.445312 8.476562 -25.285156 8.21875 -25.046875 C 7.882812 -24.804688 7.671875 -24.460938 7.578125 -24.015625 C 7.492188 -23.566406 7.453125 -22.910156 7.453125 -22.046875 C 7.453125 -21.128906 7.503906 -20.460938 7.609375 -20.046875 C 7.710938 -19.628906 7.898438 -19.332031 8.171875 -19.15625 C 8.441406 -18.976562 8.898438 -18.828125 9.546875 -18.703125 L 13.484375 -17.984375 C 14.523438 -17.835938 15.410156 -17.519531 16.140625 -17.03125 C 16.867188 -16.539062 17.441406 -15.726562 17.859375 -14.59375 C 18.273438 -13.40625 18.484375 -11.722656 18.484375 -9.546875 C 18.484375 -6.722656 18.140625 -4.597656 17.453125 -3.171875 C 16.765625 -1.742188 15.816406 -0.796875 14.609375 -0.328125 C 13.410156 0.128906 11.828125 0.359375 9.859375 0.359375 Z M 9.859375 0.359375 "/></g></g></g><g fill="#3d3d3d" fill-opacity="1"><g transform="translate(212.250396, 231.91979)"><g/></g></g><g fill="#3d3d3d" fill-opacity="1"><g transform="translate(220.240386, 231.91979)"><g><path d="M 15.765625 0 L 14.546875 -6.296875 L 7.671875 -6.296875 L 6.46875 0 L 0.359375 0 L 6.703125 -30.71875 L 15.671875 -30.71875 L 22 0 Z M 11.25 -24.90625 L 10.984375 -24.90625 L 8.578125 -11.609375 L 13.609375 -11.609375 Z M 11.25 -24.90625 "/></g></g></g><g fill="#3d3d3d" fill-opacity="1"><g transform="translate(242.603422, 231.91979)"><g><path d="M 6.34375 0 L 0.453125 -30.71875 L 6.703125 -30.71875 L 10.71875 -6.421875 L 11.109375 -6.421875 L 15 -30.71875 L 21.15625 -30.71875 L 15.265625 0 Z M 6.34375 0 "/></g></g></g><g fill="#3d3d3d" fill-opacity="1"><g transform="translate(264.252254, 231.91979)"><g><path d="M 2.328125 0 L 2.328125 -30.71875 L 17.234375 -30.71875 L 17.234375 -25.3125 L 8.484375 -25.3125 L 8.484375 -18.21875 L 16.03125 -18.21875 L 16.03125 -12.8125 L 8.484375 -12.8125 L 8.484375 -5.40625 L 17.234375 -5.40625 L 17.234375 0 Z M 2.328125 0 "/></g></g></g><g fill="#3d3d3d" fill-opacity="1"><g transform="translate(283.044344, 231.91979)"><g><path d="M 15.484375 0 L 8.34375 -16.828125 L 8.171875 -16.828125 L 8.171875 0 L 2.328125 0 L 2.328125 -30.71875 L 8.265625 -30.71875 L 14.90625 -15.171875 L 15.140625 -15.171875 L 15.140625 -30.71875 L 21.03125 -30.71875 L 21.03125 0 Z M 15.484375 0 "/></g></g></g><g fill="#3d3d3d" fill-opacity="1"><g transform="translate(306.389398, 231.91979)"><g><path d="M 2.359375 0 L 2.359375 -30.71875 L 8.484375 -30.71875 L 8.484375 0 Z M 2.359375 0 "/></g></g></g><g fill="#3d3d3d" fill-opacity="1"><g transform="translate(317.236153, 231.91979)"><g><path d="M 2.328125 -30.71875 L 10.625 -30.71875 C 13.78125 -30.71875 16.035156 -30.273438 17.390625 -29.390625 C 18.742188 -28.515625 19.582031 -27.101562 19.90625 -25.15625 C 20.238281 -23.207031 20.40625 -19.941406 20.40625 -15.359375 C 20.40625 -10.773438 20.238281 -7.507812 19.90625 -5.5625 C 19.582031 -3.613281 18.742188 -2.195312 17.390625 -1.3125 C 16.035156 -0.4375 13.78125 0 10.625 0 L 2.328125 0 Z M 10.53125 -5.40625 C 11.84375 -5.40625 12.726562 -5.5625 13.1875 -5.875 C 13.65625 -6.1875 13.953125 -6.96875 14.078125 -8.21875 C 14.210938 -9.46875 14.28125 -11.847656 14.28125 -15.359375 C 14.28125 -18.835938 14.207031 -21.207031 14.0625 -22.46875 C 13.914062 -23.738281 13.617188 -24.53125 13.171875 -24.84375 C 12.722656 -25.15625 11.84375 -25.3125 10.53125 -25.3125 L 8.4375 -25.3125 L 8.4375 -5.40625 Z M 10.53125 -5.40625 "/></g></g></g><g fill="#3d3d3d" fill-opacity="1"><g transform="translate(339.375983, 231.91979)"><g><path d="M 15.765625 0 L 14.546875 -6.296875 L 7.671875 -6.296875 L 6.46875 0 L 0.359375 0 L 6.703125 -30.71875 L 15.671875 -30.71875 L 22 0 Z M 11.25 -24.90625 L 10.984375 -24.90625 L 8.578125 -11.609375 L 13.609375 -11.609375 Z M 11.25 -24.90625 "/></g></g></g><g fill="#ff3131" fill-opacity="1"><g transform="translate(111.575144, 262.337696)"><g><path d="M 8.464844 0 L 10.445312 0 L 6.269531 -9.910156 L 4.445312 -9.910156 L 0.28125 0 L 2.25 0 L 3.03125 -1.910156 L 7.6875 -1.910156 Z M 3.652344 -3.441406 L 5.363281 -7.628906 L 7.0625 -3.441406 Z M 3.652344 -3.441406 "/></g></g></g><g fill="#ff3131" fill-opacity="1"><g transform="translate(129.451302, 262.337696)"><g><path d="M 4.628906 0.140625 C 6.722656 0.140625 8.394531 -1.21875 8.394531 -3.679688 L 8.394531 -9.910156 L 6.539062 -9.910156 L 6.539062 -3.667969 C 6.539062 -2.125 5.5625 -1.597656 4.628906 -1.597656 C 3.695312 -1.597656 2.703125 -2.125 2.703125 -3.667969 L 2.703125 -9.910156 L 0.847656 -9.910156 L 0.847656 -3.679688 C 0.847656 -1.21875 2.519531 0.140625 4.628906 0.140625 Z M 4.628906 0.140625 "/></g></g></g><g fill="#ff3131" fill-opacity="1"><g transform="translate(145.841792, 262.337696)"><g><path d="M 7.503906 -9.910156 L 0.566406 -9.910156 L 0.566406 -8.195312 L 3.101562 -8.195312 L 3.101562 0 L 4.953125 0 L 4.953125 -8.195312 L 7.503906 -8.195312 Z M 7.503906 -9.910156 "/></g></g></g><g fill="#ff3131" fill-opacity="1"><g transform="translate(161.057899, 262.337696)"><g><path d="M 5.761719 0.140625 C 8.480469 0.140625 10.886719 -1.925781 10.886719 -4.953125 C 10.886719 -7.984375 8.480469 -10.050781 5.761719 -10.050781 C 3.042969 -10.050781 0.636719 -7.984375 0.636719 -4.953125 C 0.636719 -1.925781 3.042969 0.140625 5.761719 0.140625 Z M 5.761719 -1.597656 C 4.019531 -1.597656 2.5625 -2.972656 2.5625 -4.953125 C 2.5625 -6.9375 4.019531 -8.308594 5.761719 -8.308594 C 7.488281 -8.308594 8.945312 -6.9375 8.945312 -4.953125 C 8.945312 -2.972656 7.488281 -1.597656 5.761719 -1.597656 Z M 5.761719 -1.597656 "/></g></g></g><g fill="#ff3131" fill-opacity="1"><g transform="translate(179.726417, 262.337696)"><g/></g></g><g fill="#ff3131" fill-opacity="1"><g transform="translate(190.315711, 262.337696)"><g><path d="M 4.261719 -9.910156 L 0.847656 -9.910156 L 0.847656 0 L 2.703125 0 L 2.703125 -3.367188 L 4.261719 -3.367188 C 6.484375 -3.367188 7.882812 -4.613281 7.882812 -6.582031 C 7.882812 -8.550781 6.484375 -9.910156 4.261719 -9.910156 Z M 4.160156 -4.96875 L 2.703125 -4.96875 L 2.703125 -8.195312 L 4.160156 -8.195312 C 5.28125 -8.195312 6.03125 -7.699219 6.03125 -6.582031 C 6.03125 -5.449219 5.28125 -4.96875 4.160156 -4.96875 Z M 4.160156 -4.96875 "/></g></g></g><g fill="#ff3131" fill-opacity="1"><g transform="translate(205.843099, 262.337696)"><g><path d="M 2.703125 -1.710938 L 2.703125 -4.148438 L 5.890625 -4.148438 L 5.890625 -5.816406 L 2.703125 -5.816406 L 2.703125 -8.195312 L 6.894531 -8.195312 L 6.894531 -9.910156 L 0.847656 -9.910156 L 0.847656 0 L 7.019531 0 L 7.019531 -1.710938 Z M 2.703125 -1.710938 "/></g></g></g><g fill="#ff3131" fill-opacity="1"><g transform="translate(220.648867, 262.337696)"><g><path d="M 5.734375 0.609375 L 6.285156 0.128906 C 7.390625 0.0273438 8.367188 -0.382812 9.144531 -1.0625 L 8.027344 -2.363281 C 7.445312 -1.898438 6.667969 -1.597656 5.890625 -1.597656 C 4.046875 -1.597656 2.5625 -3 2.5625 -4.953125 C 2.5625 -6.90625 4.046875 -8.308594 5.890625 -8.308594 C 6.652344 -8.308594 7.402344 -8.027344 7.96875 -7.601562 L 9.089844 -8.875 C 8.222656 -9.625 7.078125 -10.050781 5.777344 -10.050781 C 3.058594 -10.050781 0.636719 -7.957031 0.636719 -4.953125 C 0.636719 -2.40625 2.378906 -0.523438 4.558594 0 L 4.078125 0.820312 L 4.628906 1.332031 C 5.125 0.992188 5.621094 1.429688 5.621094 1.796875 C 5.621094 2.25 5.152344 2.746094 4.261719 2.5625 L 4.121094 3.015625 C 5.71875 3.410156 7.0625 2.917969 7.0625 1.796875 C 7.0625 1.105469 6.371094 0.722656 5.734375 0.609375 Z M 5.734375 0.609375 "/></g></g></g><g fill="#ff3131" fill-opacity="1"><g transform="translate(237.435536, 262.337696)"><g><path d="M 8.464844 0 L 10.445312 0 L 6.269531 -9.910156 L 4.445312 -9.910156 L 0.28125 0 L 2.25 0 L 3.03125 -1.910156 L 7.6875 -1.910156 Z M 3.652344 -3.441406 L 5.363281 -7.628906 L 7.0625 -3.441406 Z M 3.652344 -3.441406 "/></g></g></g><g fill="#ff3131" fill-opacity="1"><g transform="translate(255.311699, 262.337696)"><g><path d="M 4.105469 0.140625 C 5.789062 0.140625 7.617188 -0.847656 7.617188 -2.804688 C 7.617188 -4.191406 6.695312 -5.039062 4.585938 -5.789062 L 3.90625 -6.042969 C 3.070312 -6.355469 2.691406 -6.722656 2.691406 -7.277344 C 2.691406 -7.957031 3.242188 -8.410156 4.078125 -8.410156 C 4.925781 -8.410156 5.449219 -7.96875 5.972656 -7.191406 L 7.347656 -7.996094 C 6.851562 -8.976562 5.789062 -10.050781 4.0625 -10.050781 C 2.292969 -10.050781 0.847656 -9.015625 0.847656 -7.332031 C 0.847656 -5.761719 1.980469 -5.039062 3.453125 -4.5 L 4.078125 -4.261719 C 5.179688 -3.851562 5.691406 -3.566406 5.691406 -2.832031 C 5.691406 -1.96875 5.011719 -1.542969 4.105469 -1.542969 C 2.945312 -1.542969 2.277344 -2.25 1.925781 -3.042969 L 0.496094 -2.292969 C 0.933594 -0.890625 2.335938 0.140625 4.105469 0.140625 Z M 4.105469 0.140625 "/></g></g></g></svg>